<svg width="28" height="28" viewBox="0 0 28 28" fill="none" xmlns="http://www.w3.org/2000/svg">
<g opacity="0.5">
<path fill-rule="evenodd" clip-rule="evenodd" d="M11.1667 2.3125C6.27665 2.3125 2.3125 6.27665 2.3125 11.1667C2.3125 16.0567 6.27665 20.0208 11.1667 20.0208C16.0567 20.0208 20.0208 16.0567 20.0208 11.1667C20.0208 6.27665 16.0567 2.3125 11.1667 2.3125ZM0.1875 11.1667C0.1875 5.10304 5.10304 0.1875 11.1667 0.1875C17.2303 0.1875 22.1458 5.10304 22.1458 11.1667C22.1458 17.2303 17.2303 22.1458 11.1667 22.1458C5.10304 22.1458 0.1875 17.2303 0.1875 11.1667Z" fill="white"/>
<path fill-rule="evenodd" clip-rule="evenodd" d="M17.4987 17.4987C17.9136 17.0838 18.5864 17.0838 19.0013 17.4987L27.5013 25.9987C27.9162 26.4136 27.9162 27.0864 27.5013 27.5013C27.0864 27.9162 26.4136 27.9162 25.9987 27.5013L17.4987 19.0013C17.0838 18.5864 17.0838 17.9136 17.4987 17.4987Z" fill="white"/>
</g>
</svg>
